<svg xmlns="http://www.w3.org/2000/svg" style="display:none">
  <!-- HAND-DRAWN (user-approved): temple/bridge/market/pho/cafe -->
  <symbol id="heritage-temple" viewBox="0 0 24 24" fill="none" stroke="currentColor"
          stroke-width="1.5" stroke-linecap="round" stroke-linejoin="round">
    <path d="M3 9l9-5 9 5"/><path d="M5 9v9M19 9v9M5 18h14"/>
    <path d="M9 18v-4h6v4"/><path d="M3 9h18"/>
  </symbol>
  <symbol id="water-bridge" viewBox="0 0 24 24" fill="none" stroke="currentColor"
          stroke-width="1.5" stroke-linecap="round" stroke-linejoin="round">
    <path d="M2 15c4 0 6-4 10-4s6 4 10 4"/><path d="M2 18h20"/>
    <path d="M6 13v5M18 13v5"/>
  </symbol>
  <symbol id="food-market" viewBox="0 0 24 24" fill="none" stroke="currentColor"
          stroke-width="1.5" stroke-linecap="round" stroke-linejoin="round">
    <path d="M3 8l2-3h14l2 3"/><path d="M3 8c0 1.5 1 2.5 2.5 2.5S8 9.5 8 8s1 2.5 2.5 2.5
             S13 9.5 13 8s1 2.5 2.5 2.5S18 9.5 18 8s1 2.5 2.5 2.5S22 9.5 22 8"/>
    <path d="M5 10.5V19h14v-8.5"/>
  </symbol>
  <symbol id="food-pho" viewBox="0 0 24 24" fill="none" stroke="currentColor"
          stroke-width="1.5" stroke-linecap="round" stroke-linejoin="round">
    <path d="M4 11h16"/><path d="M5 11c0 5 3 7 7 7s7-2 7-7"/>
    <path d="M9 4c-1 1 1 2 0 3M13 4c-1 1 1 2 0 3"/><path d="M15 13l5-2"/>
  </symbol>
  <symbol id="food-cafe" viewBox="0 0 24 24" fill="none" stroke="currentColor"
          stroke-width="1.5" stroke-linecap="round" stroke-linejoin="round">
    <path d="M4 8h13v5a5 5 0 0 1-5 5H9a5 5 0 0 1-5-5z"/>
    <path d="M17 9h2a2 2 0 0 1 0 4h-2"/><path d="M8 3c-1 1 1 2 0 3M12 3c-1 1 1 2 0 3"/>
  </symbol>
  <!-- GEOMETRIC (deterministic) -->
  <symbol id="heritage-colonial" viewBox="0 0 24 24" fill="none" stroke="currentColor"
          stroke-width="1.5" stroke-linecap="round" stroke-linejoin="round">
    <path d="M5 20h14"/><path d="M7 20V8M12 20V8M17 20V8"/><path d="M4 8h16l-8-4z"/>
  </symbol>
  <symbol id="park-tree" viewBox="0 0 24 24" fill="none" stroke="currentColor"
          stroke-width="1.5" stroke-linecap="round" stroke-linejoin="round">
    <circle cx="9" cy="9" r="4"/><path d="M9 13v7"/><circle cx="16" cy="12" r="3"/>
    <path d="M16 15v5"/>
  </symbol>
  <symbol id="school" viewBox="0 0 24 24" fill="none" stroke="currentColor"
          stroke-width="1.5" stroke-linecap="round" stroke-linejoin="round">
    <path d="M12 5v4"/><path d="M8 9h8l-1 6H9z"/><path d="M9 15v3M15 15v3"/>
  </symbol>
  <symbol id="hotel" viewBox="0 0 24 24" fill="none" stroke="currentColor"
          stroke-width="1.5" stroke-linecap="round" stroke-linejoin="round">
    <circle cx="8" cy="9" r="3"/><path d="M10 11l8 8"/><path d="M15 16l3-3 2 2-3 3z"/>
  </symbol>
  <symbol id="transit-bus" viewBox="0 0 24 24" fill="none" stroke="currentColor"
          stroke-width="1.5" stroke-linecap="round" stroke-linejoin="round">
    <rect x="5" y="5" width="14" height="12" rx="2"/><path d="M5 12h14"/>
    <path d="M8 17v2M16 17v2"/><circle cx="8.5" cy="14.5" r=".6"/>
  </symbol>
  <symbol id="office-building" viewBox="0 0 24 24" fill="none" stroke="currentColor"
          stroke-width="1.5" stroke-linecap="round" stroke-linejoin="round">
    <rect x="6" y="4" width="12" height="16"/><path d="M9 8h2M13 8h2M9 12h2M13 12h2"/>
  </symbol>
  <symbol id="food-restaurant" viewBox="0 0 24 24" fill="none" stroke="currentColor"
          stroke-width="1.5" stroke-linecap="round" stroke-linejoin="round">
    <path d="M4 14a8 8 0 0 1 16 0z"/><path d="M3 17h18"/><path d="M12 6v3"/>
  </symbol>
  <symbol id="hem" viewBox="0 0 24 24" fill="none" stroke="currentColor"
          stroke-width="1.5" stroke-linecap="round" stroke-linejoin="round">
    <path d="M7 20V6h2v14M15 20V6h2v14"/><path d="M11 7h2"/><circle cx="12" cy="5" r="1"/>
  </symbol>
  <symbol id="star-unique" viewBox="0 0 24 24" fill="none" stroke="currentColor"
          stroke-width="1.5" stroke-linecap="round" stroke-linejoin="round">
    <path d="M12 3l2.5 5.5L20 9l-4 4 1 6-5-3-5 3 1-6-4-4 5.5-.5z"/>
  </symbol>
  <symbol id="river-wave" viewBox="0 0 24 24" fill="none" stroke="currentColor"
          stroke-width="1.5" stroke-linecap="round" stroke-linejoin="round">
    <path d="M2 9c3-3 5 3 8 0s5-3 8 0M2 15c3-3 5 3 8 0s5-3 8 0"/>
  </symbol>
</svg>
